<svg class="header-img" version="1.1" viewBox="0 0 434 434" xmlns="http://www.w3.org/2000/svg">
    <g fill="none" fill-rule="evenodd">
    <g transform="translate(.212 .711)" fill="#35352D" fill-rule="nonzero">
    <path id="a" d="m369.5 63.396c-40.881-40.882-95.236-63.396-153.05-63.396s-112.17 22.515-153.05 63.396c-40.881 40.881-63.396 95.236-63.396 153.05s22.515 112.17 63.396 153.05c40.882 40.882 95.237 63.396 153.05 63.396s112.17-22.515 153.05-63.396 63.396-95.236 63.396-153.05-22.514-112.17-63.396-153.05zm-153.05 364.5c-116.59 0-211.45-94.855-211.45-211.45s94.855-211.45 211.45-211.45 211.45 94.855 211.45 211.45-94.856 211.45-211.45 211.45z"/>
    <path d="m406.08 267.44c2.392-8.887 4.176-18.02 5.302-27.354 0.023-0.117 0.035-0.236 0.041-0.358 0.906-7.637 1.386-15.403 1.386-23.281 0-4.452-0.163-8.865-0.457-13.244 0.132-0.188 0.245-0.396 0.323-0.625 0.31-0.907 0.059-1.861-0.556-2.514-2.375-28.618-10.914-55.509-24.281-79.347-0.105-0.394-0.311-0.75-0.588-1.05-33.799-59.417-97.695-99.582-170.8-99.582-97.778 0-179.08 71.84-193.93 165.51-0.045 0.167-0.075 0.338-0.085 0.511-1.541 9.893-2.346 20.025-2.346 30.343 0 7.841 0.476 15.573 1.374 23.176 2e-3 0.181 0.022 0.359 0.061 0.531 1.739 14.38 5.039 28.282 9.723 41.539 0.049 0.317 0.156 0.61 0.308 0.872 27.204 75.842 99.811 130.24 184.9 130.24 55.73 0 106.11-23.339 141.89-60.754 0.03-0.02 0.063-0.038 0.093-0.057 0.362-0.238 0.631-0.559 0.821-0.915 21.811-23.121 38.078-51.518 46.673-83.049 0.029-0.072 0.065-0.139 0.088-0.214 0.037-0.124 0.055-0.251 0.072-0.378zm-50.93 80.709c-18.146 11.537-54.418 14.366-94.959 7.36-39.206-6.775-74.339-21.23-95.721-39.161 20.168-0.132 80.403-3.268 117.07-34.464 37.708-32.084 105.47-16.56 118.98-13.033-8.582 30.102-24.369 57.197-45.365 79.298zm-328.27-105.54c1.584 0.242 3.698 0.547 6.305 0.884 0.147 0.032 0.297 0.053 0.45 0.057 17.126 2.19 54.344 5.592 99.152 1.485 22.696-2.084 39.155 3.392 54.276 11.254 0.075 0.041 0.147 0.086 0.228 0.119 5.866 3.063 11.536 6.48 17.293 9.953 16.778 10.118 34.07 20.544 58.214 22.455-40.304 22.896-96.156 22.638-103.94 22.48-23.914-22.626-56.564-30.276-79.857-32.692-20.925-2.172-37.818-0.682-43.561-0.026-3.97-11.533-6.861-23.563-8.565-35.969zm380.03-44.653c-13.726-4.782-26.309-9.666-37.871-14.581 2.754-2.084 4.458-4.947 4.913-8.395 1.509-11.454-10.637-27.314-30.942-40.406-21.941-14.146-26.896-30.537-28.013-36.919 1.398 0.242 2.813 0.682 4.268 1.394 17.557 8.6 57.258 21.976 64.336 24.338 12.56 22.471 20.722 47.715 23.309 74.569zm-97.001-100.28c0.966 6.87 5.84 25.272 30.392 41.102 21.138 13.628 29.691 27.981 28.694 35.55-0.402 3.05-2.342 5.244-5.731 6.552-49.252-21.612-79.296-43.584-100.88-59.838 12.752-2.932 22.456-9.349 30.45-14.637 6.466-4.278 11.8-7.799 17.07-8.729zm-55.119 23.897c0.016 0.013 0.032 0.025 0.049 0.037 0.512 0.386 1.021 0.77 1.544 1.165 27.816 20.994 69.737 52.625 150.97 80.625 0.292 4.313 0.454 8.662 0.454 13.048 0 7.016-0.391 13.941-1.13 20.763-11.104 0.502-63.748 2.253-101.31-7.433-32.863-9.022-50.86-18.046-55.02-27.587-2.662-6.106 0.556-12.275 3.962-18.807 5.303-10.167 11.902-22.82-8.313-35.26-23.683-14.573-26.692-38.84-27.029-46.699 10.095 0.97 20.425 8.536 35.822 20.148zm-40.85-20.07c0.273 8.724 3.352 34.828 29.437 50.879 16.248 10 11.946 18.247 6.5 28.689-3.623 6.947-7.73 14.82-4.113 23.118 3.327 7.631 13.032 14.56 29.973 21.238-14.359 1-27.027 6.615-40.174 12.442-14.209 6.297-28.902 12.797-46.807 13.695-15.44-7.911-32.9-13.661-56.426-11.507-37.728 3.46-69.983 1.541-89.159-0.438 5.885-3.048 14.024-8.13 22.098-15.992 8.426-8.205 5.462-15.187 3.081-20.796-2.432-5.729-4.353-10.253 2.556-17.163 13.433-13.433 17.885-29.584 19.1-35.294 3.952 0.245 7.963 2.219 12.69 4.838 6.514 3.608 14.577 3.522 21.039-0.224 15.548-9.011 46.133-27.186 76.292-47.664 5.009-3.4 9.515-5.263 13.913-5.821zm-146.57 80.631c-9.294 9.294-6.15 16.701-3.624 22.652 2.327 5.481 4.009 9.442-1.966 15.26-12.576 12.246-25.583 17.444-28.313 18.446-3.261-0.426-5.707-0.797-7.228-1.042-0.757-6.899-1.158-13.905-1.158-21.003 0-9.74 0.736-19.311 2.147-28.664 6.432-3.823 40.263-24.045 52.743-33.852 1.619-1.272 3.168-2.15 4.686-2.73-1.622 6.348-6.159 19.805-17.287 30.933zm290.78 75.078c-34.023-1.855-61.639 5.357-79.863 20.864-2.531 2.153-5.192 4.165-7.955 6.049-26.779-0.103-44.465-10.762-63.173-22.044-3.472-2.094-6.965-4.197-10.533-6.236 15.383-2.088 28.357-7.82 40.958-13.405 19.157-8.492 37.254-16.51 60.958-9.371 1.784 0.538 3.613 1.043 5.475 1.524 0.026 7e-3 0.051 0.014 0.077 0.021 3e-3 1e-3 7e-3 0 0.011 1e-3 37.358 9.622 89.03 8.174 101.95 7.626-1.001 7.397-2.417 14.665-4.241 21.771-6.183-1.642-23.072-5.675-43.668-6.8zm-141.71-232.13c69.042 0 129.66 36.757 163.32 91.727-13.337-4.544-43.914-15.207-58.297-22.252-11.367-5.568-20.643 0.57-31.384 7.675-8.966 5.931-19.111 12.621-33.09 14.735-16.257-12.249-27.938-20.624-40.14-20.684-0.089-0.015-0.174-0.037-0.266-0.042-0.194-0.01-0.382 7e-3 -0.565 0.038-5.924 0.155-11.997 2.287-18.801 6.906-30.03 20.391-60.5 38.497-75.99 47.474-4.95 2.871-11.123 2.939-16.109 0.176-7.656-4.241-17.186-9.521-28.235-0.838-10.526 8.271-37.62 24.737-48.554 31.299 16.551-88.787 94.601-156.21 188.11-156.21zm0 382.72c-81.96 0-152.04-51.799-179.25-124.38 14.925-1.494 79.936-5.517 118.92 32.137 21.338 20.611 59.927 37.383 103.22 44.865 14.905 2.576 29.288 3.835 42.494 3.835 16.51 0 31.177-1.972 42.727-5.801-33.945 30.649-78.886 49.339-128.11 49.339z"/>
    </g>
    </g>
</svg>
