<?xml version="1.0" encoding="UTF-8"?>
<svg width="434px" height="434px" viewBox="0 0 434 434" version="1.1" xmlns="http://www.w3.org/2000/svg" xmlns:xlink="http://www.w3.org/1999/xlink">
    <title>Group</title>
    <g id="Page-1" stroke="none" stroke-width="1" fill="none" fill-rule="evenodd">
        <g id="Group" transform="translate(0.212000, 0.683000)" fill="#35352D" fill-rule="nonzero">
            <path d="M369.5,63.396 C328.619,22.514 274.264,0 216.448,0 C158.632,0 104.278,22.515 63.396,63.396 C22.515,104.278 0,158.632 0,216.448 C0,274.264 22.515,328.618 63.396,369.5 C104.278,410.382 158.633,432.896 216.448,432.896 C274.263,432.896 328.618,410.381 369.5,369.5 C410.382,328.618 432.896,274.264 432.896,216.448 C432.896,158.632 410.382,104.278 369.5,63.396 Z M216.449,427.896 C99.856,427.896 5.001,333.041 5.001,216.448 C5.001,99.855 99.856,5 216.449,5 C333.042,5 427.897,99.855 427.897,216.448 C427.897,333.041 333.041,427.896 216.449,427.896 Z" id="Shape"></path>
            <path d="M408.499,257.504 C408.52,257.418 408.524,257.332 408.536,257.246 C411.329,244.08 412.81,230.434 412.81,216.448 C412.81,108.174 324.723,20.087 216.448,20.087 C108.173,20.087 20.086,108.174 20.086,216.448 C20.086,230.434 21.567,244.08 24.36,257.246 C24.372,257.332 24.376,257.418 24.397,257.504 C24.409,257.552 24.432,257.595 24.446,257.642 C28.292,275.587 34.596,292.628 42.989,308.398 C43.021,308.524 43.055,308.65 43.109,308.773 C43.217,309.023 43.365,309.242 43.537,309.434 C49.676,320.804 56.9,331.506 65.077,341.394 C65.175,341.596 65.291,341.791 65.447,341.967 C65.581,342.118 65.732,342.245 65.891,342.357 C68.872,345.916 71.975,349.368 75.196,352.707 C75.274,352.848 75.366,352.984 75.474,353.112 C75.654,353.325 75.867,353.487 76.093,353.625 C80.474,358.105 85.067,362.379 89.856,366.427 C90.108,366.783 90.436,367.053 90.806,367.231 C95.061,370.783 99.468,374.156 104.016,377.343 C104.299,377.684 104.669,377.928 105.077,378.078 C112.554,383.246 120.404,387.91 128.58,392.018 C128.854,392.237 129.17,392.394 129.513,392.482 C155.735,405.485 185.25,412.811 216.448,412.811 C243.576,412.811 269.437,407.279 292.963,397.288 C293.282,397.222 293.584,397.084 293.859,396.895 C314.522,387.997 333.359,375.649 349.651,360.582 C350.003,360.396 350.321,360.136 350.56,359.783 C350.581,359.752 350.593,359.719 350.612,359.687 C366.086,345.185 379.219,328.217 389.371,309.41 C389.534,309.222 389.681,309.014 389.785,308.773 C389.838,308.651 389.871,308.526 389.904,308.401 C398.299,292.63 404.603,275.588 408.449,257.642 C408.464,257.594 408.487,257.551 408.499,257.504 Z M70.875,340.508 C76.408,335.633 81.951,330.891 87.381,326.404 C94.711,320.342 102.249,314.38 109.784,308.682 C116.614,303.526 123.643,298.453 130.677,293.605 C159.099,274.004 188.246,257.713 217.305,245.185 C217.341,245.172 217.375,245.158 217.41,245.143 C217.415,245.141 217.421,245.139 217.426,245.137 C217.43,245.135 217.433,245.133 217.437,245.132 C222.235,243.065 227.034,241.098 231.832,239.231 C231.972,239.176 232.112,239.126 232.253,239.071 C234.512,238.194 236.77,237.337 239.027,236.505 C260.506,228.59 281.939,222.69 303.139,218.847 C303.352,218.907 303.573,218.949 303.805,218.949 C304.345,218.949 304.841,218.774 305.25,218.483 C314.106,216.934 322.923,215.731 331.683,214.907 C331.683,214.907 331.684,214.907 331.685,214.906 C333.836,214.706 335.988,214.527 338.134,214.371 C344.577,213.902 350.981,213.632 357.243,213.568 C357.255,213.568 357.266,213.568 357.278,213.568 C364.78,213.5 372.094,213.732 379.12,214.247 C381.334,214.409 383.524,214.597 385.676,214.815 C385.676,214.815 385.677,214.815 385.677,214.815 L385.677,214.815 C396.925,215.951 404.52,217.584 407.786,218.378 C407.665,230.514 406.414,242.382 404.124,253.883 C366.353,244.916 325.861,244.175 283.71,251.724 C249.295,257.889 213.709,269.55 177.941,286.385 C124.419,311.576 86.335,341.076 77.656,348.055 C75.329,345.6 73.071,343.082 70.875,340.508 Z M49.001,308.989 C69.953,300.337 93.559,295.808 119.315,295.485 C115.091,298.506 110.893,301.58 106.77,304.693 C99.176,310.434 91.581,316.443 84.195,322.55 C78.761,327.041 73.215,331.785 67.678,336.66 C60.684,328.023 54.428,318.768 49.001,308.989 Z M29.809,258.76 C74.121,248.217 122.028,249.242 172.342,261.811 C157.387,270.125 142.515,279.368 127.839,289.489 C127.359,289.82 126.879,290.161 126.398,290.493 C97.028,289.991 70.206,294.738 46.619,304.563 C39.164,290.254 33.465,274.891 29.809,258.76 Z M25.111,218.376 C28.381,217.583 35.98,215.948 47.218,214.805 C54.011,214.123 61.089,213.722 68.344,213.603 C70.762,213.563 73.201,213.554 75.655,213.578 C79.184,213.609 82.769,213.724 86.376,213.889 C87.027,213.919 87.672,213.936 88.325,213.971 C88.45,213.977 88.576,213.988 88.701,213.994 C92.848,214.217 97.028,214.522 101.215,214.918 C120.74,216.749 140.545,220.411 160.475,225.828 C176.961,230.31 193.533,236.002 210.106,242.887 C199.651,247.553 189.195,252.704 178.771,258.304 C125.813,244.291 75.369,242.805 28.771,253.868 C26.482,242.371 25.232,230.506 25.111,218.376 Z M49.558,209.561 C53.179,120.995 127.459,49.416 216.448,49.416 C305.441,49.416 379.719,121.003 383.338,209.567 C382.54,209.496 381.718,209.447 380.912,209.382 C380.015,209.312 379.121,209.238 378.214,209.177 C376.781,209.079 375.331,209.001 373.875,208.927 C373.04,208.884 372.212,208.835 371.37,208.8 C369.718,208.732 368.048,208.687 366.372,208.649 C365.7,208.633 365.037,208.607 364.361,208.596 C362.784,208.571 361.191,208.572 359.596,208.573 C357.636,172.346 342.22,138.589 316.008,113.285 C289.147,87.356 253.79,73.076 216.448,73.076 C179.105,73.076 143.745,87.356 116.884,113.286 C90.675,138.588 75.259,172.342 73.3,208.564 C73.163,208.564 73.027,208.562 72.89,208.562 C71.733,208.562 70.589,208.584 69.44,208.598 C68.904,208.605 68.366,208.605 67.833,208.615 C63.254,208.697 58.745,208.891 54.328,209.195 C53.691,209.239 53.064,209.292 52.432,209.34 C51.474,209.415 50.507,209.477 49.558,209.561 Z M78.295,208.612 C82.366,135.209 142.565,78.077 216.448,78.077 C290.322,78.077 350.52,135.207 354.6,208.605 C353.88,208.619 353.151,208.648 352.428,208.667 C351.576,208.689 350.725,208.711 349.869,208.74 C348.611,208.784 347.347,208.841 346.081,208.899 C345.286,208.936 344.494,208.968 343.697,209.012 C342.276,209.089 340.85,209.183 339.424,209.28 C338.773,209.323 338.125,209.36 337.473,209.408 C336.258,209.497 335.041,209.604 333.825,209.708 C332.163,180.161 319.584,152.638 298.224,131.959 C276.182,110.619 247.14,98.867 216.448,98.867 C185.756,98.867 156.714,110.621 134.672,131.964 C113.312,152.646 100.734,180.169 99.071,209.716 C97.855,209.612 96.64,209.503 95.427,209.413 C94.75,209.362 94.077,209.325 93.402,209.279 C91.996,209.183 90.592,209.091 89.193,209.014 C88.99,209.002 88.785,208.987 88.582,208.975 C87.986,208.944 87.398,208.929 86.805,208.901 C85.537,208.842 84.271,208.786 83.011,208.743 C82.71,208.733 82.405,208.715 82.104,208.706 C81.557,208.688 81.02,208.686 80.475,208.673 C79.749,208.654 79.017,208.625 78.295,208.612 Z M209.733,237.313 C209.587,237.253 209.44,237.191 209.294,237.131 C208.462,236.791 207.631,236.471 206.799,236.139 C206.374,235.968 205.948,235.799 205.523,235.631 C204.53,235.236 203.537,234.831 202.544,234.445 C202.411,234.393 202.277,234.341 202.144,234.289 C201.156,233.906 200.168,233.545 199.18,233.171 C198.842,233.042 198.503,232.914 198.164,232.787 C197.228,232.434 196.292,232.07 195.356,231.726 C195.236,231.681 195.116,231.638 194.996,231.594 C193.941,231.207 192.886,230.841 191.831,230.463 C191.34,230.287 190.849,230.11 190.358,229.937 C189.63,229.679 188.902,229.41 188.174,229.156 C188.066,229.119 187.958,229.084 187.85,229.047 C186.758,228.668 185.666,228.311 184.575,227.943 C183.395,227.546 182.216,227.136 181.036,226.751 C180.902,226.707 180.768,226.666 180.634,226.622 C179.545,226.267 178.457,225.933 177.368,225.588 C176.203,225.22 175.037,224.84 173.873,224.484 C173.712,224.434 173.55,224.385 173.389,224.337 C172.325,224.012 171.262,223.707 170.198,223.393 C169.037,223.05 167.876,222.697 166.717,222.365 C166.53,222.311 166.343,222.259 166.157,222.206 C165.118,221.91 164.081,221.635 163.043,221.349 C161.884,221.031 160.725,220.703 159.567,220.395 C159.357,220.339 159.147,220.283 158.936,220.227 C157.923,219.959 156.911,219.712 155.898,219.455 C154.741,219.16 153.583,218.858 152.427,218.575 C152.194,218.517 151.961,218.458 151.727,218.402 C150.742,218.162 149.759,217.943 148.775,217.713 C147.615,217.442 146.455,217.164 145.296,216.904 C145.04,216.847 144.784,216.786 144.529,216.729 C143.576,216.517 142.625,216.326 141.673,216.123 C140.508,215.875 139.343,215.621 138.179,215.385 C137.903,215.328 137.625,215.268 137.349,215.211 C136.424,215.025 135.5,214.86 134.576,214.682 C133.601,214.494 132.625,214.295 131.652,214.117 C132.897,168.428 170.492,131.596 216.449,131.596 C262.455,131.596 299.999,168.404 301.246,214.114 C300.28,214.292 299.313,214.489 298.347,214.676 C297.411,214.856 296.476,215.024 295.539,215.212 C295.266,215.268 294.992,215.328 294.719,215.383 C293.574,215.616 292.427,215.866 291.281,216.112 C290.305,216.32 289.33,216.516 288.353,216.733 C288.103,216.788 287.853,216.848 287.603,216.905 C286.472,217.158 285.339,217.429 284.207,217.694 C283.189,217.932 282.172,218.159 281.153,218.407 C280.926,218.462 280.7,218.52 280.473,218.576 C279.35,218.85 278.226,219.144 277.103,219.43 C276.051,219.698 274.999,219.954 273.946,220.233 C273.742,220.286 273.537,220.342 273.333,220.397 C272.212,220.694 271.09,221.011 269.969,221.32 C268.888,221.617 267.809,221.904 266.727,222.212 C266.546,222.263 266.365,222.316 266.185,222.367 C265.064,222.687 263.942,223.028 262.821,223.36 C261.714,223.688 260.606,224.005 259.498,224.342 C259.342,224.391 259.186,224.438 259.03,224.485 C257.907,224.83 256.784,225.196 255.66,225.55 C254.526,225.908 253.391,226.258 252.257,226.627 C252.128,226.67 251.998,226.71 251.869,226.752 C250.738,227.122 249.606,227.515 248.475,227.896 C247.324,228.284 246.173,228.662 245.021,229.061 C244.926,229.094 244.831,229.124 244.736,229.157 C244.142,229.364 243.549,229.585 242.955,229.794 C242.373,229.999 241.79,230.21 241.208,230.419 C240.099,230.815 238.991,231.2 237.882,231.607 C237.772,231.648 237.661,231.688 237.55,231.728 C236.675,232.05 235.8,232.391 234.925,232.719 C234.568,232.853 234.212,232.989 233.855,233.123 C232.815,233.517 231.775,233.897 230.735,234.301 C230.612,234.349 230.488,234.398 230.364,234.446 C229.409,234.816 228.455,235.207 227.5,235.586 C227.07,235.756 226.64,235.926 226.209,236.099 C225.336,236.448 224.463,236.785 223.59,237.141 C223.451,237.197 223.313,237.256 223.174,237.313 C222.189,237.715 221.204,238.136 220.219,238.547 C218.96,239.072 217.701,239.586 216.443,240.125 C215.222,239.603 214.001,239.104 212.78,238.594 C211.765,238.163 210.749,237.729 209.733,237.313 Z M104.051,210.169 C107.305,150.372 156.233,103.867 216.448,103.867 C276.663,103.867 325.592,150.368 328.845,210.159 C328.041,210.241 327.235,210.342 326.43,210.43 C325.658,210.514 324.887,210.583 324.114,210.673 C323.753,210.715 323.389,210.768 323.028,210.811 C321.834,210.953 320.639,211.109 319.445,211.264 C318.629,211.37 317.814,211.462 316.997,211.575 C316.657,211.622 316.315,211.678 315.976,211.725 C314.797,211.89 313.617,212.071 312.436,212.248 C311.578,212.378 310.721,212.494 309.862,212.631 C309.543,212.681 309.223,212.739 308.904,212.791 C308.017,212.935 307.129,213.087 306.241,213.237 C304.543,165.173 264.92,126.591 216.448,126.591 C168.028,126.591 128.35,165.196 126.654,213.241 C125.766,213.091 124.877,212.938 123.99,212.795 C123.672,212.744 123.353,212.686 123.035,212.635 C122.17,212.498 121.308,212.381 120.445,212.25 C119.268,212.073 118.091,211.895 116.917,211.729 C116.582,211.682 116.246,211.626 115.911,211.582 C115.076,211.467 114.243,211.372 113.408,211.264 C112.232,211.112 111.057,210.959 109.883,210.82 C108.717,210.681 107.553,210.555 106.389,210.429 C105.61,210.345 104.829,210.247 104.051,210.169 Z M216.449,25.087 C320.89,25.087 406.044,109.194 407.77,213.232 C404.165,212.4 397.603,211.097 388.35,210.074 C386.744,165.834 368.466,124.488 336.713,93.44 C304.382,61.828 261.671,44.418 216.449,44.418 C171.227,44.418 128.517,61.826 96.189,93.436 C64.439,124.481 46.159,165.826 44.548,210.066 C35.299,211.096 28.735,212.401 25.129,213.232 C26.853,109.193 112.007,25.087 216.449,25.087 Z M81.157,351.655 C90.29,344.341 127.747,315.518 180.19,290.851 C235.175,264.99 318.268,238.59 403.088,258.758 C399.433,274.893 393.732,290.257 386.275,304.57 C357.945,292.767 325.073,288.325 288.495,291.406 C258.587,293.927 226.15,301.443 192.086,313.747 C140.529,332.369 100.625,356.557 92.178,361.843 C88.374,358.588 84.693,355.194 81.157,351.655 Z M292.726,391.932 C250.132,360.644 142.754,384.553 130.54,387.409 C123.955,384.086 117.588,380.392 111.465,376.358 C123.832,371.856 159.557,359.503 200.686,351.173 C246.172,341.962 307.454,335.986 344.324,358.682 C329.121,372.364 311.721,383.643 292.726,391.932 Z M137.885,390.93 C163.289,385.627 249.558,370.069 287.248,394.228 C265.337,402.985 241.447,407.81 216.448,407.81 C188.466,407.81 161.867,401.771 137.885,390.93 Z M348.132,355.168 C317.498,335.527 267.585,332.524 199.693,346.273 C153.526,355.622 114.07,370.018 106.387,372.903 C102.912,370.452 99.526,367.883 96.227,365.212 C106.869,358.645 145.034,336.058 193.783,318.45 C245.849,299.643 320.78,282.919 383.902,308.977 C374.371,326.159 362.278,341.733 348.132,355.168 Z" id="Shape"></path>
        </g>
    </g>
</svg>