<?xml version="1.0" encoding="UTF-8"?>
<svg width="434px" height="434px" viewBox="0 0 434 434" version="1.1" xmlns="http://www.w3.org/2000/svg" xmlns:xlink="http://www.w3.org/1999/xlink">
    <title>Group</title>
    <g id="Page-1" stroke="none" stroke-width="1" fill="none" fill-rule="evenodd">
        <g id="Group" transform="translate(0.512000, 0.711000)" fill="#35352D" fill-rule="nonzero">
            <path d="M369.5,63.396 C328.618,22.514 274.264,0 216.448,0 C158.632,0 104.278,22.515 63.396,63.396 C22.514,104.277 4.54747351e-13,158.632 4.54747351e-13,216.448 C4.54747351e-13,274.264 22.515,328.618 63.396,369.5 C104.277,410.382 158.632,432.896 216.448,432.896 C274.264,432.896 328.618,410.381 369.5,369.5 C410.382,328.619 432.896,274.264 432.896,216.448 C432.896,158.632 410.382,104.277 369.5,63.396 Z M216.448,427.896 C99.855,427.896 5,333.041 5,216.448 C5,99.855 99.855,5 216.448,5 C333.041,5 427.896,99.855 427.896,216.448 C427.896,333.041 333.041,427.896 216.448,427.896 Z" id="Shape"></path>
            <path d="M373.803,333.785 C394.132,306.594 407.574,273.976 411.56,238.539 C411.595,238.374 411.617,238.206 411.618,238.036 C412.397,230.944 412.81,223.744 412.81,216.448 C412.81,210.647 412.542,204.907 412.046,199.233 C412.046,199.217 412.051,199.203 412.051,199.188 C412.051,199.011 412.031,198.839 411.996,198.672 C409.809,174.421 403.202,151.427 392.975,130.507 C392.885,130.148 392.721,129.817 392.491,129.534 C381.144,106.646 365.468,86.274 346.532,69.494 C346.285,69.108 345.937,68.788 345.507,68.584 C311.278,38.67 266.611,20.427 217.763,20.104 C217.753,20.103 217.743,20.1 217.734,20.099 C217.67,20.094 217.608,20.102 217.545,20.101 C217.179,20.099 216.815,20.087 216.448,20.087 C108.174,20.087 20.086,108.174 20.086,216.449 C20.086,225.816 20.761,235.027 22.035,244.048 C22.04,244.227 22.066,244.401 22.108,244.571 C25.774,270.022 34.336,293.91 46.811,315.247 C46.924,315.621 47.126,315.967 47.41,316.26 C65.487,346.758 91.569,371.976 122.753,388.979 C123.037,389.231 123.379,389.41 123.753,389.512 C151.379,404.369 182.944,412.811 216.448,412.811 C280.316,412.811 337.153,382.154 373.037,334.79 C373.379,334.52 373.641,334.177 373.803,333.785 Z M27.541,247.033 C37.601,248.562 67.294,251.492 94.993,238.621 C107.604,232.76 114.461,237.824 125.822,246.212 C132.935,251.464 141.748,257.963 154.51,263.073 C154.795,263.259 155.109,263.381 155.434,263.438 C167.558,268.157 183.187,271.603 204.2,271.602 C206.346,271.602 208.553,271.564 210.815,271.49 C208.637,273.719 206.406,276.056 204.11,278.521 C147.808,338.938 81.114,335.044 51.248,312.93 C39.549,292.975 31.363,270.726 27.541,247.033 Z M219.776,25.128 C262.679,25.864 302.185,40.783 333.797,65.398 L218.17,34.416 C218.887,31.364 219.425,28.265 219.776,25.128 Z M193.456,68.98 C193.448,68.988 193.438,68.993 193.43,69.001 C193.422,69.009 193.417,69.019 193.409,69.027 C165.594,96.817 120.245,97.926 91.083,71.986 C124.29,43.131 167.505,25.52 214.752,25.107 C212.776,41.652 205.283,57.142 193.456,68.98 Z M279.623,77.176 C282.031,86.342 289.244,108.945 305.058,125.072 C311.687,131.831 308.851,136.586 304.926,143.167 C299.93,151.542 293.939,161.627 309.212,176.519 C287.701,168.286 268.504,158.615 252.822,149.657 C234.801,139.362 219.567,129.008 208.145,120.633 C231.884,110.325 251.13,98.24 264.133,89.017 C264.201,88.98 264.26,88.926 264.324,88.882 C271.383,83.867 276.572,79.718 279.623,77.176 Z M406.791,196.651 C377.52,196.287 349.176,190.221 323.521,181.649 C298.241,164.164 303.567,155.205 309.219,145.728 C313.314,138.863 317.954,131.083 308.627,121.571 C295.846,108.536 288.879,90.486 285.711,80.184 C333.706,122.452 380.16,131.922 388.816,133.37 C398.25,152.862 404.471,174.186 406.791,196.651 Z M185.22,102.492 C185.21,102.483 185.198,102.477 185.187,102.468 C185.12,102.409 185.043,102.36 184.969,102.308 C184.907,102.266 184.849,102.219 184.785,102.182 C184.721,102.146 184.65,102.119 184.582,102.089 C184.5,102.052 184.42,102.011 184.336,101.984 C184.278,101.965 184.215,101.955 184.155,101.94 C184.055,101.915 183.955,101.89 183.853,101.877 C183.839,101.876 183.826,101.87 183.812,101.869 C183.761,101.864 183.712,101.87 183.662,101.869 C183.562,101.865 183.462,101.861 183.362,101.868 C183.288,101.874 183.218,101.888 183.146,101.899 C183.06,101.913 182.975,101.927 182.89,101.95 C182.812,101.971 182.738,102 182.663,102.029 C182.589,102.057 182.517,102.084 182.445,102.119 C182.366,102.158 182.293,102.205 182.218,102.252 C182.157,102.29 182.097,102.326 182.04,102.37 C181.959,102.431 181.887,102.5 181.815,102.57 C181.782,102.603 181.744,102.628 181.711,102.662 C177.93,106.771 173.87,110.74 169.603,114.575 L163.681,92.482 C168.747,90.959 173.643,88.942 178.301,86.439 L189.84,106.423 C186.89,103.977 185.284,102.549 185.22,102.492 Z M105.468,157.258 L122.474,93.771 C127.58,94.96 132.831,95.642 138.168,95.805 L138.168,138.393 C127.451,145.355 116.351,151.649 105.468,157.258 Z M143.168,95.801 C148.504,95.635 153.75,94.947 158.849,93.759 L165.412,118.246 C158.412,124.207 150.918,129.815 143.167,135.068 L143.167,95.801 L143.168,95.801 Z M182.622,83.918 C187.072,81.15 191.268,77.922 195.158,74.265 L226.937,106.045 C219.726,109.86 211.882,113.635 203.496,117.177 C202.46,116.397 201.472,115.644 200.517,114.912 L182.622,83.918 Z M231.526,103.562 L198.697,70.732 C202.332,66.86 205.552,62.657 208.323,58.189 L258.273,87.028 C250.993,92.06 241.982,97.803 231.526,103.562 Z M117.642,92.485 L99.48,160.288 C79.851,170.038 61.321,177.502 47.508,182.585 L103.029,86.42 C107.69,88.928 112.579,90.963 117.642,92.485 Z M42.402,189.735 C42.645,189.685 42.881,189.608 43.099,189.489 C57.478,184.393 79.018,176.036 102.043,164.572 C102.491,164.487 102.902,164.278 103.239,163.976 C115.914,157.62 129.002,150.323 141.57,142.115 C141.902,141.986 142.2,141.794 142.445,141.545 C151.981,135.274 161.197,128.473 169.688,121.156 C169.79,121.083 169.882,121.002 169.971,120.915 C173.366,117.979 176.638,114.958 179.77,111.857 C177.086,125.098 169.459,152.13 150.105,167.832 C142.477,174.02 139.014,179.907 139.516,185.828 C140.398,196.22 153.484,203.578 166.139,210.694 C170.885,213.363 175.368,215.883 179.161,218.506 C180.731,219.591 181.611,220.621 181.577006,221.333 C181.457,223.696 174.756,227.395 169.371,230.367 C160.325,235.36 150.071,241.019 148.742,249.447 C148.436,251.385 148.632,253.351 149.317,255.336 C140.923,251.14 134.47,246.384 128.792,242.191 C117.281,233.691 108.19,226.977 92.886,234.088 C65.142,246.981 34.319,243.072 26.774,241.837 C25.668,233.528 25.086,225.056 25.086,216.45 C25.086,209.227 25.503,202.1 26.286,195.083 C28.535,194.397 34.262,192.607 42.402,189.735 Z M216.05,266.238 C189.549,267.781 171.121,264.257 157.369,258.905 C154.483,255.717 153.265,252.871 153.682,250.224 C154.63,244.213 163.746,239.182 171.788,234.743 C179.903,230.264 186.312,226.726 186.571,221.583 C186.701,218.994 185.165,216.575 182.006,214.392 C178.022,211.639 173.228,208.943 168.591,206.336 C157.07,199.858 145.157,193.159 144.499,185.405 C144.152,181.317 147.099,176.711 153.256,171.715 C176.084,153.194 183.389,121.149 185.383,109.215 C187.926,111.346 191.803,114.514 196.864,118.41 C196.993,118.539 197.14,118.641 197.291,118.737 C198.606,119.747 199.999,120.804 201.465,121.903 C201.579,122.005 201.699,122.096 201.828,122.175 C213.667,131.025 230.262,142.522 250.237,153.94 C269.425,164.908 293.805,176.934 321.279,186.174 C321.628,186.391 322.009,186.511 322.395,186.542 C348.518,195.23 377.391,201.355 407.243,201.659 C407.618,206.541 407.809,211.473 407.809,216.45 C407.809,223.138 407.46,229.747 406.788,236.261 C399.089,239.256 359.595,253.329 322.423,242.853 C317.399,241.437 312.779,239.94 308.312,238.493 C279.816,229.257 260.226,222.913 216.05,266.238 Z M385.967,127.744 C371.511,124.725 327.234,112.56 282.815,70.79 C282.754,70.733 282.687,70.691 282.623,70.641 C282.57,70.6 282.521,70.555 282.465,70.519 C282.375,70.46 282.279,70.415 282.185,70.369 C282.138,70.346 282.095,70.318 282.046,70.299 C281.937,70.255 281.823,70.224 281.71,70.196 C281.67,70.186 281.632,70.17 281.591,70.161 C281.435,70.13 281.276,70.113 281.116,70.112 C281.096,70.112 281.077,70.116 281.057,70.117 C280.916,70.119 280.775,70.132 280.635,70.159 C280.625,70.16 280.617,70.159 280.608,70.161 C280.559,70.171 280.517,70.191 280.47,70.203 C280.369,70.229 280.27,70.256 280.172,70.295 C280.104,70.322 280.04,70.358 279.975,70.391 C279.899,70.43 279.824,70.467 279.75,70.514 C279.68,70.559 279.617,70.611 279.553,70.662 C279.508,70.698 279.459,70.725 279.416,70.765 C279.284,70.885 273.363,76.237 262.775,83.853 L210.82,53.857 C213.317,49.202 215.35,44.31 216.881,39.247 L343.002,73.041 C360.44,88.448 375.054,106.976 385.967,127.744 Z M87.332,75.337 C90.894,78.556 94.696,81.422 98.702,83.916 L40.222,185.207 C34.334,187.275 29.773,188.755 26.974,189.635 C33.309,144.65 55.335,104.639 87.332,75.337 Z M57.248,322.509 C69.274,328.776 84.76,332.708 102.12,332.708 C134.39,332.707 173.078,319.154 207.769,281.929 C211.485,277.941 215.022,274.287 218.406,270.926 C218.905,270.686 219.302,270.285 219.549,269.797 C261.467,228.576 279.08,234.276 306.771,243.247 C311.285,244.709 315.951,246.221 321.069,247.664 C357.122,257.825 394.087,246.306 406.118,241.876 C401.715,274.892 388.871,305.275 369.819,330.768 C363.514,332.876 321.053,345.791 272.416,329.404 C245.856,320.455 235.081,330.255 220.168,343.817 C203.921,358.592 181.687,378.795 125.039,384.528 C97.741,369.623 74.46,348.26 57.248,322.509 Z M216.448,407.81 C186.552,407.81 158.24,400.914 133.008,388.637 C185.819,381.78 207.505,362.091 223.531,347.516 C238.194,334.181 247.044,326.131 270.819,334.142 C312.48,348.179 348.951,341.673 364.476,337.583 C329.353,380.424 276.041,407.81 216.448,407.81 Z" id="Shape"></path>
        </g>
    </g>
</svg>