<svg version="1.1" viewBox="0 0 434 434" xmlns="http://www.w3.org/2000/svg">
<title>Group</title>
<g fill="none" fill-rule="evenodd">
<g transform="translate(.11 .683)" fill="#35352D" fill-rule="nonzero">
<path id="Shape" d="m369.5 63.396c-40.882-40.882-95.237-63.396-153.05-63.396s-112.17 22.515-153.05 63.396-63.396 95.236-63.396 153.05 22.515 112.17 63.396 153.05 95.236 63.396 153.05 63.396 112.17-22.515 153.05-63.396c40.881-40.882 63.396-95.236 63.396-153.05s-22.515-112.17-63.396-153.05zm-153.05 364.5c-116.59 0-211.45-94.855-211.45-211.45s94.855-211.45 211.45-211.45c116.59 0 211.45 94.855 211.45 211.45s-94.857 211.45-211.45 211.45z"/>
<path id="Path" d="m235.55 273.62h87.227c1.381 0 2.5-1.119 2.5-2.5s-1.119-2.5-2.5-2.5h-87.227c-1.381 0-2.5 1.119-2.5 2.5s1.119 2.5 2.5 2.5z"/>
<path id="Path" d="m179.73 307.16c0-1.381-1.119-2.5-2.5-2.5h-77.419c-1.381 0-2.5 1.119-2.5 2.5s1.119 2.5 2.5 2.5h77.419c1.381 0 2.5-1.119 2.5-2.5z"/>
<path id="Path" d="m214.39 309.66h37.161c1.381 0 2.5-1.119 2.5-2.5s-1.119-2.5-2.5-2.5h-37.161c-1.381 0-2.5 1.119-2.5 2.5s1.119 2.5 2.5 2.5z"/>
<path id="Path" d="m319.17 326.33h-93.419c-1.381 0-2.5 1.119-2.5 2.5s1.119 2.5 2.5 2.5h93.419c1.381 0 2.5-1.119 2.5-2.5s-1.119-2.5-2.5-2.5z"/>
<path id="Path" d="m344.38 297.35c0-1.381-1.119-2.5-2.5-2.5h-32c-1.381 0-2.5 1.119-2.5 2.5s1.119 2.5 2.5 2.5h32c1.381 0 2.5-1.119 2.5-2.5z"/>
<path id="Path" d="m170.52 343.37h-33.417c-1.381 0-2.5 1.119-2.5 2.5s1.119 2.5 2.5 2.5h33.417c1.381 0 2.5-1.119 2.5-2.5s-1.119-2.5-2.5-2.5z"/>
<path id="Path" d="m109.1 326.33h-22.71c-1.381 0-2.5 1.119-2.5 2.5s1.119 2.5 2.5 2.5h22.71c1.381 0 2.5-1.119 2.5-2.5s-1.119-2.5-2.5-2.5z"/>
<path id="Path" d="m262.7 363.5h-62.44c-1.381 0-2.5 1.119-2.5 2.5s1.119 2.5 2.5 2.5h62.44c1.381 0 2.5-1.119 2.5-2.5s-1.119-2.5-2.5-2.5z"/>
<path id="Path" d="m94.57 291.67c0-1.381-1.119-2.5-2.5-2.5h-29.42c-1.381 0-2.5 1.119-2.5 2.5s1.119 2.5 2.5 2.5h29.42c1.381 0 2.5-1.119 2.5-2.5z"/>
<path id="b" d="m225.36 387.82h-48.452c-1.38 0-2.499 1.119-2.499 2.5s1.119 2.5 2.499 2.5h48.452c1.38 0 2.5-1.119 2.5-2.5s-1.12-2.5-2.5-2.5z"/>
<path d="m311.68 346.2h-25.548c-1.381 0-2.5 1.119-2.5 2.5s1.119 2.5 2.5 2.5h25.548c1.381 0 2.5-1.119 2.5-2.5s-1.119-2.5-2.5-2.5z"/>
<path id="a" d="m385.65 315.98c8.048-13.63 14.494-28.311 19.084-43.783 0.105-0.223 0.177-0.463 0.213-0.715 5.107-17.47 7.86-35.934 7.86-55.031 0-108.27-88.088-196.36-196.36-196.36s-196.36 88.087-196.36 196.36c0 11.615 1.021 22.996 2.965 34.063 0.011 0.113 0.028 0.227 0.057 0.34 1.246 7.023 2.874 13.916 4.849 20.663 0.036 0.229 0.101 0.448 0.194 0.651 10.308 34.775 29.997 65.559 56.138 89.388 0.24 0.377 0.581 0.679 0.982 0.881 34.798 31.3 80.799 50.377 131.18 50.377 43.52 0 83.771-14.24 116.36-38.293 0.402-0.156 0.747-0.415 1.016-0.742 20.537-15.36 37.971-34.647 51.197-56.73 0.296-0.292 0.509-0.661 0.632-1.069zm-169.2-290.89c105.52 0 191.36 85.845 191.36 191.36 0 6.688-0.349 13.297-1.021 19.811-5.241-1.348-17.814-5.044-24.726-10.957-0.517-0.441-1.121-0.91-1.783-1.396-0.016-0.013-0.032-0.023-0.048-0.035-5.305-3.876-14.98-9.058-25.167-14.511-12.601-6.745-25.63-13.72-30.588-18.313-2.95-2.732-6.349-5.512-9.947-8.454-8.719-7.13-18.601-15.211-27.984-27.095-8.454-10.709-19.666-19.007-29.56-26.327-6.367-4.713-12.382-9.164-17.105-13.783-11.672-11.412-30.443 5.001-48.6 20.876-3.995 3.493-8.127 7.105-12.014 10.262-21.534 17.481-45.266 32.407-52.901 33.272-7.257 0.823-13.255 6.386-25.204 17.466-4.373 4.056-9.815 9.102-16.427 14.941-19.546 17.263-48.149 30.52-57.249 34.503-1.572-9.859-2.4-19.965-2.4-30.26 0-105.52 85.845-191.36 191.36-191.36zm-1.756 116.83c1.183 4.098 0.234 5.123-2.3 7.863-1.529 1.653-3.433 3.711-5.119 6.929-4.102 7.831-7.12 13.176-12.235 20.651-1.934 2.826-4.781 4.251-8.076 5.901-4.174 2.09-8.904 4.459-11.942 10.214-2.111 4.001-5.107 7.999-8.004 11.865-3.697 4.933-7.52 10.034-9.771 15.437-1.591 3.818-6.677 7.953-12.061 12.33-6.617 5.379-13.459 10.941-16.555 17.797-4.417 9.779-14.785 16.299-17.21 17.723h-55.555c4.358-3.325 10.045-7.68 13.103-10.083 2.462-1.934 4.672-2.906 7.011-3.936 2.521-1.108 5.129-2.256 8.087-4.58 3.756-2.951 5.958-5.418 8.29-8.029 1.188-1.33 2.416-2.706 3.948-4.265 3.657-3.722 20.506-15.118 26.689-19.196 1.153-0.76 1.471-2.311 0.711-3.463-0.761-1.154-2.311-1.47-3.463-0.711-0.926 0.61-22.728 15.006-27.504 19.865-1.616 1.644-2.885 3.065-4.112 4.439-2.274 2.548-4.239 4.749-7.649 7.428-2.461 1.934-4.671 2.906-7.011 3.936-2.521 1.109-5.127 2.256-8.086 4.58-4.654 3.658-15.472 11.892-18.266 14.015h-15.296c-1.565-5.516-2.878-11.137-3.947-16.842 7.924-3.385 38.455-17.086 59.677-35.829 6.656-5.88 12.123-10.949 16.516-15.022 11.147-10.338 16.743-15.526 22.368-16.164 9.938-1.126 36.006-18.543 55.489-34.358 3.959-3.215 8.125-6.857 12.153-10.38 11.576-10.123 23.427-20.473 32.348-22.869-5.739 6.477-14.283 17.643-12.228 24.754zm116.25 227.78h-19.257c-1.381 0-2.5 1.119-2.5 2.5s1.119 2.5 2.5 2.5h12.25c-30.658 20.891-67.668 33.118-107.48 33.118-46.912 0-89.928-16.979-123.25-45.101h18.882c1.381 0 2.5-1.119 2.5-2.5s-1.119-2.5-2.5-2.5h-24.588c-24.674-22.543-43.441-51.444-53.683-84.086h179.29c1.381 0 2.5-1.119 2.5-2.5s-1.119-2.5-2.5-2.5h-48.939c1.445-0.978 2.894-1.936 4.321-2.874 4.285-2.815 8.716-5.727 12.866-9.191 3.85-3.214 4.043-3.261 5.302-3.569 1.261-0.309 3.371-0.825 8.256-3.041 4.301-1.949 6.863-3.029 8.733-3.817 2.964-1.249 4.45-1.876 8.539-4.144 3.132-1.738 5.115-4.678 7.215-7.791 2.912-4.316 5.923-8.78 12.528-11.283 13.44-5.093 16.302-20.983 16.417-21.658 0.233-1.36-0.682-2.652-2.043-2.885-1.363-0.233-2.652 0.682-2.885 2.043-0.023 0.137-2.465 13.733-13.261 17.824-8.091 3.066-11.867 8.665-14.901 13.163-1.831 2.714-3.413 5.059-5.496 6.215-3.853 2.138-5.082 2.655-8.055 3.908-1.896 0.799-4.495 1.894-8.855 3.872-4.461 2.022-6.22 2.452-7.382 2.737-2.221 0.544-2.899 0.899-7.317 4.588-3.93 3.281-8.048 5.986-12.407 8.851-3.357 2.206-6.818 4.494-10.178 7.053h-35.324c4.415-3.484 9.854-8.805 12.951-15.664 2.61-5.779 8.986-10.963 15.152-15.976 5.887-4.786 11.446-9.306 13.521-14.286 2.012-4.827 5.482-9.459 9.156-14.362 3.014-4.021 6.129-8.18 8.425-12.529 2.289-4.337 5.918-6.153 9.76-8.077 3.589-1.797 7.299-3.655 9.964-7.549 5.226-7.639 8.438-13.327 12.538-21.154 1.378-2.63 2.962-4.343 4.359-5.854 2.776-3.001 5.399-5.837 3.433-12.645-1.344-4.653 7.175-16.036 14.191-23.319 0.976 0.381 1.881 0.953 2.699 1.754 2.04 1.995 4.287 3.938 6.669 5.869 1.031 1.802 5.753 10.676 2.636 17.105-2.938 6.059-1.872 12.012-0.639 18.904 0.701 3.921 1.496 8.365 1.683 13.503 0.049 1.349 1.157 2.409 2.496 2.409 0.031 0 0.062-1e-3 0.093-2e-3 1.38-0.05 2.458-1.209 2.407-2.589-0.199-5.49-1.026-10.118-1.757-14.202-1.168-6.528-2.013-11.246 0.217-15.842 2.107-4.347 1.751-9.189 0.697-13.249 1.032 0.769 2.071 1.54 3.126 2.32 10.112 7.483 20.568 15.222 28.609 25.406 4.622 5.854 9.431 10.868 14.114 15.27 1.697 4.962 5.545 17.102 5.737 21.906 0.08 2.015-0.47 3.374-1.105 4.947-1.131 2.796-2.413 5.964-4e-3 11.895 1.061 2.608 1.748 4.024 2.204 4.961 0.661 1.361 0.661 1.361 0.86 4.6l0.112 1.788c0.527 8.179 2.835 16.198 2.934 16.536 0.317 1.093 1.315 1.803 2.399 1.803 0.23 0 0.465-0.032 0.696-0.1 1.327-0.385 2.09-1.771 1.706-3.097-0.022-0.078-2.255-7.847-2.745-15.465l-0.111-1.773c-0.235-3.826-0.261-4.226-1.355-6.479-0.426-0.877-1.07-2.202-2.067-4.656-1.646-4.053-0.953-5.767 6e-3 -8.138 0.709-1.751 1.59-3.932 1.467-7.021-0.144-3.583-1.815-9.907-3.389-15.155 2.54 2.164 4.989 4.17 7.284 6.046 3.537 2.893 6.878 5.625 9.714 8.252 5.43 5.03 18.747 12.16 31.626 19.054 6.818 3.65 13.777 7.377 19.042 10.541-7.443 1.21-18.372 3.553-22.093 7.272-0.976 0.977-0.976 2.559 0 3.535 0.489 0.488 1.129 0.732 1.769 0.732s1.279-0.244 1.767-0.732c3.002-3.001 16.402-5.606 24.828-6.66 0.285 0.222 0.555 0.438 0.796 0.644 8.086 6.92 22.229 10.896 27.388 12.174-1.216 9.342-3.104 18.477-5.622 27.35h-42.188c-1.381 0-2.5 1.119-2.5 2.5s1.119 2.5 2.5 2.5h40.693c-4.324 13.78-10.173 26.891-17.339 39.141h-35.999c-1.381 0-2.5 1.119-2.5 2.5s1.119 2.5 2.5 2.5h32.969c-12.605 20.113-28.832 37.736-47.777 51.926z"/>
<path d="m138.52 134.92c15.68 0 28.436-12.756 28.436-28.436s-12.756-28.436-28.436-28.436-28.436 12.756-28.436 28.436 12.756 28.436 28.436 28.436zm0-51.871c12.923 0 23.436 10.513 23.436 23.436s-10.513 23.436-23.436 23.436-23.436-10.513-23.436-23.436 10.513-23.436 23.436-23.436z"/>
</g>
</g>
</svg>
