<?xml version="1.0" encoding="UTF-8"?>
<svg width="434px" height="446px" viewBox="0 0 434 446" version="1.1" xmlns="http://www.w3.org/2000/svg" xmlns:xlink="http://www.w3.org/1999/xlink">
    <title>Group</title>
    <g id="Page-1" stroke="none" stroke-width="1" fill="none" fill-rule="evenodd">
        <g id="Group" transform="translate(0.512000, 0.309382)" fill="#35352D" fill-rule="nonzero">
            <path d="M353.8,61.5426178 C357.435,35.6496178 341.761,10.1706178 315.975,2.33861779 C295.722,-3.81538221 274.607,2.55761779 260.959,16.9766178 C246.437,13.9296178 231.473,12.3716178 216.449,12.3716178 C158.634,12.3716178 104.278,34.8866178 63.397,75.7686178 C22.514,116.650618 -2.27373675e-13,171.005618 -2.27373675e-13,228.821618 C-2.27373675e-13,286.637618 22.515,340.992618 63.397,381.874618 C104.278,422.757618 158.634,445.271618 216.449,445.271618 C274.264,445.271618 328.62,422.756618 369.502,381.874618 C410.385,340.992618 432.899,286.637618 432.899,228.821618 C432.899,163.746618 404.081,102.867618 353.8,61.5426178 Z M300.29,4.99961779 C305,4.99961779 309.787,5.68461779 314.521,7.12161779 C340.403,14.9836178 355.064,42.4346178 347.203,68.3166178 C339.341,94.1986178 311.888,108.861618 286.008,100.996618 C273.47,97.1886178 263.166,88.7266178 256.993,77.1686178 C250.82,65.6106178 249.518,52.3406178 253.326,39.8026178 C259.75,18.6546178 279.252,4.99961779 300.29,4.99961779 Z M407.809,228.820618 C407.809,334.337618 321.965,420.180618 216.449,420.180618 C204.804,420.180618 193.202,419.125618 181.876,417.054618 C197.761,404.682618 249.43,361.606618 245.232,327.776618 C243.636,314.919618 234.267,304.939618 217.385,298.115618 C197.128,289.926618 192.817,283.842618 192.767,280.180618 C192.646,271.372618 214.449,261.858618 237.532,251.784618 C259.636,242.138618 284.689,231.204618 300.617,217.007618 C305.038,213.067618 308.997,209.487618 312.571,206.256618 C328.022,192.285618 336.534,184.590618 343.293,183.302618 C349.67,182.084618 355.914,186.457618 368.302,195.664618 C390.112,211.873618 403.946,221.562618 407.74,224.197618 C407.776,225.738618 407.809,227.285618 407.809,228.820618 Z M371.284,191.651618 C343.833,171.249618 341.879,173.016618 309.218,202.547618 C305.652,205.772618 301.701,209.343618 297.291,213.275618 C281.958,226.941618 257.293,237.705618 235.532,247.202618 C208.753,258.889618 187.602,268.119618 187.768,280.248618 C187.873,287.991618 196.689,295.142618 215.511,302.750618 C230.584,308.844618 238.914,317.470618 240.27,328.390618 C244.482,362.308618 183.555,409.552618 175.353,415.742618 C138.38,407.660618 105.068,389.013618 78.727,361.667618 C85.584,359.158618 101.154,353.229618 116.654,345.688618 C145.025,331.886618 159.688,319.367618 160.235,308.476618 C160.582,301.576618 155.554,295.674618 145.293,290.939618 C139.571,288.298618 136.79,285.355618 137.025,282.192618 C137.45,276.485618 147.116,263.460618 207.079,240.348618 C241.789,226.970618 276.725,216.743618 277.074,216.641618 C278.047,216.357618 278.752,215.514618 278.859,214.507618 C278.967,213.499618 278.457,212.527618 277.566,212.043618 C232.557,187.609618 207.694,164.264618 191.241,148.815618 C167.665,126.679618 157.907,117.518618 128.718,141.601618 C88.806,174.535618 40.313,194.785618 27.274,199.896618 C41.258,108.054618 120.765,37.4606178 216.45,37.4606178 C227.059,37.4606178 237.679,38.3466178 248.065,40.0736178 C244.489,53.3766178 246.064,67.3156178 252.584,79.5236178 C259.386,92.2596178 270.74,101.585618 284.556,105.780618 C289.775,107.366618 295.046,108.119618 300.238,108.119618 C317.435,108.119618 333.698,99.8306178 343.84,86.0406178 C381.646,119.799618 404.643,167.477618 407.505,217.933618 C401.48,213.701618 389.04,204.848618 371.284,191.651618 Z M26.507,205.547618 C34.067,202.698618 88.053,181.636618 131.9,145.457618 C157.693,124.175618 164.075,130.166618 187.818,152.459618 C203.811,167.476618 227.662,189.870618 269.957,213.556618 C258.574,217.028618 231.881,225.430618 205.307,235.671618 C184.748,243.594618 168.262,251.059618 156.305,257.860618 C140.508,266.846618 132.57,274.683618 132.038,281.818618 C131.632,287.276618 135.386,291.871618 143.196,295.475618 C151.422,299.272618 155.475,303.561618 155.24,308.222618 C154.346,326.033618 98.476,349.433618 75.021,357.697618 C42.815,322.390618 25.089,276.694618 25.089,228.819618 C25.089,220.942618 25.578,213.178618 26.507,205.547618 Z M216.449,440.270618 C99.855,440.270618 4.999,345.414618 4.999,228.820618 C4.999,112.226618 99.855,17.3706178 216.449,17.3706178 C230.205,17.3706178 243.907,18.7106178 257.251,21.3256178 C254.084,25.4776178 251.485,30.1506178 249.593,35.2616178 C238.711,33.4106178 227.574,32.4606178 216.449,32.4606178 C108.176,32.4606178 20.089,120.547618 20.089,228.820618 C20.089,278.502618 38.683,325.906618 72.445,362.299618 C100.121,392.169618 135.694,412.414618 175.319,420.855618 C175.346,420.862618 175.374,420.868618 175.402,420.874618 C175.403,420.874618 175.405,420.874618 175.407,420.875618 C188.779,423.732618 202.588,425.181618 216.449,425.181618 C324.722,425.181618 412.809,337.094618 412.809,228.821618 C412.809,226.820618 412.779,224.793618 412.718,222.796618 C411.094,168.892618 387.032,117.649618 346.638,81.8406178 C348.862,78.1306178 350.673,74.0936178 351.986,69.7716178 C352.252,68.8976178 352.492,68.0226178 352.711,67.1466178 C400.541,107.477618 427.899,166.157618 427.899,228.822618 C427.899,345.414618 333.043,440.270618 216.449,440.270618 Z" id="Shape"></path>
            <path d="M298.495,289.008618 C298.832,289.161618 299.185,289.235618 299.532,289.235618 C300.481,289.235618 301.388,288.692618 301.808,287.773618 C302.381,286.517618 301.829,285.034618 300.573,284.460618 C296.573,282.634618 285.979,276.425618 284.615,269.600618 L284.615,267.186618 C284.615,265.805618 283.496,264.686618 282.115,264.686618 C280.734,264.686618 279.615,265.805618 279.615,267.186618 L279.615,269.600618 C278.255,276.405618 267.658,282.626618 263.656,284.461618 C262.401,285.036618 261.849,286.520618 262.424,287.774618 C262.844,288.692618 263.75,289.235618 264.698,289.235618 C265.046,289.235618 265.398,289.162618 265.735,289.008618 C266.213,288.789618 274.143,285.108618 279.615,279.260618 L279.615,291.757618 C278.255,298.562618 267.658,304.783618 263.656,306.618618 C262.401,307.193618 261.849,308.677618 262.424,309.931618 C262.844,310.849618 263.75,311.392618 264.698,311.392618 C265.046,311.392618 265.398,311.319618 265.735,311.165618 C266.213,310.946618 274.143,307.265618 279.615,301.417618 L279.615,313.914618 C278.255,320.719618 267.658,326.940618 263.656,328.775618 C262.401,329.350618 261.849,330.834618 262.424,332.088618 C262.844,333.006618 263.75,333.549618 264.698,333.549618 C265.046,333.549618 265.398,333.476618 265.735,333.322618 C266.213,333.103618 274.143,329.422618 279.615,323.574618 L279.615,336.071618 C278.255,342.876618 267.658,349.097618 263.656,350.932618 C262.401,351.507618 261.849,352.991618 262.424,354.245618 C262.844,355.163618 263.75,355.706618 264.698,355.706618 C265.046,355.706618 265.398,355.633618 265.735,355.479618 C266.213,355.260618 274.143,351.579618 279.615,345.731618 L279.615,358.233618 C278.251,365.035618 267.658,371.255618 263.656,373.089618 C262.401,373.664618 261.849,375.148618 262.424,376.402618 C262.844,377.320618 263.75,377.863618 264.698,377.863618 C265.046,377.863618 265.398,377.790618 265.735,377.636618 C266.213,377.417618 274.143,373.736618 279.615,367.888618 L279.615,390.481618 C279.615,391.862618 280.734,392.981618 282.115,392.981618 C283.496,392.981618 284.615,391.862618 284.615,390.481618 L284.615,367.888618 C290.087,373.736618 298.017,377.417618 298.495,377.636618 C298.832,377.789618 299.184,377.863618 299.532,377.863618 C300.48,377.863618 301.386,377.320618 301.806,376.402618 C302.38,375.147618 301.828,373.664618 300.574,373.089618 C296.572,371.255618 285.979,365.034618 284.615,358.233618 L284.615,345.731618 C290.087,351.579618 298.017,355.260618 298.495,355.479618 C298.832,355.632618 299.185,355.706618 299.532,355.706618 C300.481,355.706618 301.388,355.163618 301.808,354.244618 C302.381,352.988618 301.829,351.505618 300.573,350.931618 C296.573,349.105618 285.979,342.896618 284.615,336.071618 L284.615,323.574618 C290.087,329.422618 298.017,333.103618 298.495,333.322618 C298.832,333.475618 299.185,333.549618 299.532,333.549618 C300.481,333.549618 301.388,333.006618 301.808,332.087618 C302.381,330.831618 301.829,329.348618 300.573,328.774618 C296.573,326.948618 285.979,320.739618 284.615,313.914618 L284.615,301.417618 C290.087,307.265618 298.017,310.946618 298.495,311.165618 C298.832,311.318618 299.185,311.392618 299.532,311.392618 C300.481,311.392618 301.388,310.849618 301.808,309.930618 C302.381,308.674618 301.829,307.191618 300.573,306.617618 C296.573,304.791618 285.979,298.582618 284.615,291.757618 L284.615,279.260618 C290.087,285.108618 298.017,288.790618 298.495,289.008618 Z" id="Path"></path>
            <path d="M79.551,303.633618 L79.551,327.556618 C79.551,328.937618 80.67,330.056618 82.051,330.056618 C83.432,330.056618 84.551,328.937618 84.551,327.556618 L84.551,303.633618 C90.023,309.481618 97.953,313.162618 98.431,313.381618 C98.768,313.534618 99.121,313.608618 99.469,313.608618 C100.417,313.608618 101.324,313.065618 101.744,312.146618 C102.318,310.890618 101.765,309.407618 100.509,308.833618 C96.509,307.007618 85.918,300.800618 84.551,293.975618 L84.551,281.476618 C90.023,287.324618 97.953,291.005618 98.431,291.224618 C98.768,291.377618 99.121,291.451618 99.469,291.451618 C100.417,291.451618 101.324,290.908618 101.744,289.989618 C102.318,288.733618 101.765,287.250618 100.509,286.676618 C96.509,284.850618 85.918,278.643618 84.551,271.818618 L84.551,259.319618 C90.023,265.167618 97.953,268.848618 98.431,269.067618 C98.768,269.220618 99.121,269.294618 99.469,269.294618 C100.417,269.294618 101.324,268.751618 101.744,267.832618 C102.318,266.576618 101.765,265.093618 100.509,264.519618 C96.509,262.693618 85.918,256.486618 84.551,249.661618 L84.551,237.162618 C90.023,243.010618 97.953,246.691618 98.431,246.909618 C98.768,247.063618 99.121,247.137618 99.468,247.137618 C100.416,247.137618 101.322,246.594618 101.742,245.676618 C102.316,244.421618 101.764,242.938618 100.511,242.363618 C96.509,240.529618 85.913,234.306618 84.551,227.504618 L84.551,225.088618 C84.551,223.707618 83.432,222.588618 82.051,222.588618 C80.67,222.588618 79.551,223.707618 79.551,225.088618 L79.551,227.504618 C78.188,234.307618 67.594,240.529618 63.592,242.363618 C62.338,242.938618 61.786,244.422618 62.36,245.676618 C62.78,246.594618 63.687,247.137618 64.634,247.137618 C64.981,247.137618 65.334,247.064618 65.671,246.909618 C66.149,246.691618 74.079,243.010618 79.551,237.162618 L79.551,249.661618 C78.188,256.465618 67.594,262.686618 63.592,264.520618 C62.338,265.095618 61.786,266.579618 62.36,267.833618 C62.78,268.751618 63.687,269.294618 64.634,269.294618 C64.981,269.294618 65.334,269.221618 65.67,269.067618 C66.148,268.848618 74.079,265.167618 79.551,259.319618 L79.551,271.818618 C78.188,278.622618 67.594,284.843618 63.592,286.677618 C62.338,287.252618 61.786,288.736618 62.36,289.990618 C62.78,290.908618 63.687,291.451618 64.634,291.451618 C64.981,291.451618 65.334,291.378618 65.67,291.224618 C66.148,291.005618 74.079,287.324618 79.551,281.476618 L79.551,293.975618 C78.188,300.779618 67.594,307.000618 63.592,308.834618 C62.338,309.409618 61.786,310.893618 62.36,312.147618 C62.78,313.065618 63.687,313.608618 64.634,313.608618 C64.981,313.608618 65.334,313.535618 65.67,313.381618 C66.147,313.163618 74.079,309.481618 79.551,303.633618 Z" id="Path"></path>
            <path d="M357.326,259.536618 C357.663,259.689618 358.016,259.763618 358.363,259.763618 C359.312,259.763618 360.219,259.220618 360.639,258.301618 C361.212,257.045618 360.66,255.562618 359.404,254.988618 C355.404,253.162618 344.81,246.953618 343.446,240.128618 L343.446,237.714618 C343.446,236.333618 342.327,235.214618 340.946,235.214618 C339.565,235.214618 338.446,236.333618 338.446,237.714618 L338.446,240.128618 C337.086,246.933618 326.489,253.154618 322.487,254.989618 C321.232,255.564618 320.68,257.048618 321.255,258.302618 C321.675,259.220618 322.581,259.763618 323.529,259.763618 C323.877,259.763618 324.229,259.690618 324.566,259.536618 C325.044,259.317618 332.974,255.636618 338.446,249.788618 L338.446,262.285618 C337.086,269.090618 326.489,275.311618 322.487,277.146618 C321.232,277.721618 320.68,279.205618 321.255,280.459618 C321.675,281.377618 322.581,281.920618 323.529,281.920618 C323.877,281.920618 324.229,281.847618 324.566,281.693618 C325.044,281.474618 332.974,277.794618 338.446,271.945618 L338.446,284.442618 C337.086,291.247618 326.489,297.468618 322.487,299.303618 C321.232,299.878618 320.68,301.362618 321.255,302.616618 C321.675,303.534618 322.581,304.077618 323.529,304.077618 C323.877,304.077618 324.229,304.004618 324.566,303.850618 C325.044,303.631618 332.974,299.950618 338.446,294.102618 L338.446,306.599618 C337.086,313.404618 326.489,319.626618 322.487,321.460618 C321.232,322.035618 320.68,323.519618 321.255,324.773618 C321.675,325.691618 322.581,326.234618 323.529,326.234618 C323.877,326.234618 324.229,326.161618 324.566,326.007618 C325.044,325.788618 332.974,322.107618 338.446,316.259618 L338.446,340.182618 C338.446,341.563618 339.565,342.682618 340.946,342.682618 C342.327,342.682618 343.446,341.563618 343.446,340.182618 L343.446,316.259618 C348.918,322.107618 356.848,325.788618 357.326,326.007618 C357.663,326.160618 358.016,326.234618 358.363,326.234618 C359.312,326.234618 360.219,325.691618 360.639,324.772618 C361.212,323.516618 360.66,322.033618 359.404,321.459618 C355.404,319.633618 344.81,313.424618 343.446,306.599618 L343.446,294.102618 C348.918,299.950618 356.848,303.631618 357.326,303.850618 C357.663,304.003618 358.016,304.077618 358.363,304.077618 C359.312,304.077618 360.219,303.534618 360.639,302.615618 C361.212,301.359618 360.66,299.876618 359.404,299.302618 C355.404,297.476618 344.81,291.267618 343.446,284.442618 L343.446,271.945618 C348.918,277.794618 356.848,281.474618 357.326,281.693618 C357.663,281.846618 358.016,281.920618 358.363,281.920618 C359.312,281.920618 360.219,281.377618 360.639,280.458618 C361.212,279.202618 360.66,277.719618 359.404,277.145618 C355.404,275.319618 344.81,269.110618 343.446,262.285618 L343.446,249.788618 C348.918,255.635618 356.848,259.317618 357.326,259.536618 Z" id="Path"></path>
            <path d="M235.742,57.5586178 C235.667,56.1816178 234.523,55.1086178 233.11,55.1986178 L184.844,57.8156178 C183.465,57.8896178 182.407,59.0686178 182.483,60.4476178 C182.555,61.7796178 183.658,62.8116178 184.977,62.8116178 C185.022,62.8116178 185.068,62.8106178 185.114,62.8076178 L233.382,60.1906178 C234.759,60.1166178 235.817,58.9376178 235.742,57.5586178 Z" id="Path"></path>
            <path d="M240.831,79.4156178 C240.289,78.1466178 238.822,77.5586178 237.55,78.0976178 L193.09,97.0656178 C191.82,97.6076178 191.23,99.0766178 191.772,100.346618 C192.178,101.295618 193.101,101.866618 194.072,101.866618 C194.399,101.866618 194.732,101.801618 195.052,101.665618 L239.513,82.6976178 C240.782,82.1546178 241.372,80.6856178 240.831,79.4156178 Z" id="Path"></path>
            <path d="M253.087,98.2136178 C252.145,97.2056178 250.561,97.1516178 249.554,98.0966178 L214.262,131.127618 C213.254,132.070618 213.202,133.652618 214.145,134.660618 C214.637,135.186618 215.303,135.452618 215.971,135.452618 C216.583,135.452618 217.197,135.228618 217.679,134.777618 L252.97,101.746618 C253.978,100.803618 254.03,99.2216178 253.087,98.2136178 Z" id="Path"></path>
            <path d="M271.034,111.686618 C269.804,111.063618 268.298,111.552618 267.674,112.785618 L245.808,155.894618 C245.183,157.125618 245.675,158.630618 246.907,159.254618 C247.269,159.438618 247.655,159.525618 248.036,159.525618 C248.948,159.525618 249.827,159.024618 250.267,158.155618 L272.133,115.046618 C272.758,113.815618 272.265,112.310618 271.034,111.686618 Z" id="Path"></path>
            <path d="M292.506,118.209618 C291.133,118.034618 289.89,119.020618 289.725,120.391618 L283.922,168.379618 C283.756,169.749618 284.733,170.995618 286.104,171.160618 C286.206,171.173618 286.307,171.179618 286.407,171.179618 C287.654,171.179618 288.732,170.248618 288.886,168.979618 L294.689,120.991618 C294.853,119.620618 293.877,118.374618 292.506,118.209618 Z" id="Path"></path>
            <path d="M317.916,118.861618 C317.603,117.516618 316.26,116.675618 314.915,116.993618 C313.57,117.306618 312.733,118.649618 313.047,119.994618 L324.007,167.073618 C324.276,168.227618 325.303,169.008618 326.44,169.008618 C326.628,169.008618 326.818,168.987618 327.008,168.942618 C328.353,168.629618 329.19,167.286618 328.876,165.941618 L317.916,118.861618 Z" id="Path"></path>
            <path d="M335.556,108.187618 C334.399,108.941618 334.073,110.490618 334.827,111.646618 L361.227,152.137618 C361.706,152.872618 362.506,153.272618 363.323,153.272618 C363.792,153.272618 364.265,153.141618 364.686,152.866618 C365.843,152.112618 366.169,150.563618 365.415,149.407618 L339.015,108.916618 C338.261,107.758618 336.71,107.431618 335.556,108.187618 Z" id="Path"></path>
        </g>
    </g>
</svg>