<svg width="10px" height="10px" viewBox="0 0 10 10" version="1.1" xmlns="http://www.w3.org/2000/svg" xmlns:xlink="http://www.w3.org/1999/xlink">
    <title>icn-x</title>
    <g id="Page-1" stroke="none" stroke-width="1" fill="none" fill-rule="evenodd">
        <g id="icn-x" transform="translate(0.623883, 0.623883)" fill="#000000" fill-rule="nonzero">
            <path d="M0.18361723,0.18361723 C0.300872558,0.0660651037 0.460083154,0 0.62611723,0 C0.792151306,0 0.951361901,0.0660651037 1.06861723,0.18361723 L4.37611723,3.49236723 L7.68361723,0.18361723 C7.84170725,0.0255272061 8.07212848,-0.0362139763 8.28808347,0.0216509884 C8.50403846,0.0795159531 8.67271851,0.248196 8.73058347,0.464150988 C8.78844844,0.680105977 8.72670725,0.910527206 8.56861723,1.06861723 L5.25986723,4.37611723 L8.56861723,7.68361723 C8.72670725,7.84170725 8.78844844,8.07212848 8.73058347,8.28808347 C8.67271851,8.50403846 8.50403846,8.67271851 8.28808347,8.73058347 C8.07212848,8.78844844 7.84170725,8.72670725 7.68361723,8.56861723 L4.37611723,5.25986723 L1.06861723,8.56861723 C0.910527206,8.72670725 0.680105977,8.78844844 0.464150988,8.73058347 C0.248196,8.67271851 0.0795159531,8.50403846 0.0216509884,8.28808347 C-0.0362139763,8.07212848 0.0255272061,7.84170725 0.18361723,7.68361723 L3.49236723,4.37611723 L0.18361723,1.06861723 C0.0660651037,0.951361901 0,0.792151306 0,0.62611723 C0,0.460083154 0.0660651037,0.300872558 0.18361723,0.18361723 Z" id="Path"></path>
        </g>
    </g>
</svg>