<?xml version="1.0" encoding="UTF-8"?>
<svg width="791px" height="669px" viewBox="0 0 791 669" version="1.1" xmlns="http://www.w3.org/2000/svg" xmlns:xlink="http://www.w3.org/1999/xlink">
    <title>paddle</title>
    <g id="Page-1" stroke="none" stroke-width="1" fill="none" fill-rule="evenodd">
        <g id="paddle" transform="translate(0.789000, 0.139000)" fill="#FFFFFF" fill-rule="nonzero">
            <path d="M618.184,29.305 L273.946,373.543 L142.384,505.1 L139.852,497.562 L245.053,379.107 C140.294,403.588 50.573,472.39 0,568.577 C8.739,591.693 17.586,617.031 34.673,634.105 C51.763,651.201 77.093,660.049 100.202,668.784 C205.13,613.628 277.481,511.873 295.251,394.828 L639.475,50.609 L649.111,60.238 C652.418,63.541 657.82,63.546 661.12,60.238 L666.3,55.066 C669.602,51.75 669.602,46.356 666.307,43.055 L625.728,2.475 C622.429,-0.825 617.024,-0.825 613.721,2.475 L608.541,7.662 C605.243,10.966 605.243,16.36 608.541,19.665 L618.184,29.305 Z" id="Path"></path>
            <path d="M171.78,29.305 L516.022,373.543 L647.58,505.1 L650.113,497.562 L544.912,379.107 C649.674,403.588 739.394,472.39 789.969,568.577 C781.229,591.693 772.379,617.031 755.293,634.105 C738.201,651.201 712.875,660.049 689.768,668.784 C584.838,613.628 512.485,511.873 494.717,394.828 L150.492,50.61 L140.855,60.239 C137.552,63.542 132.148,63.547 128.848,60.239 L123.666,55.067 C120.365,51.751 120.365,46.357 123.663,43.056 L164.24,2.476 C167.54,-0.824 172.947,-0.824 176.244,2.476 L181.424,7.663 C184.729,10.967 184.724,16.361 181.428,19.666 L171.78,29.305 Z" id="Path"></path>
        </g>
    </g>
</svg>